HIERARCHY
ROOT Hips
{
	OFFSET -0.001795 -0.223333 0.028219
	CHANNELS 6 Xposition Yposition Zposition Zrotation Yrotation Xrotation 
	JOINT LeftUpLeg
	{
		OFFSET 0.069520 -0.091406 -0.006815
		CHANNELS 3 Zrotation Yrotation Xrotation
		JOINT LeftLeg
		{
			OFFSET 0.034277 -0.375199 -0.004496
			CHANNELS 3 Zrotation Yrotation Xrotation
			JOINT LeftFoot
			{
				OFFSET -0.013596 -0.397961 -0.043693
				CHANNELS 3 Zrotation Yrotation Xrotation
				JOINT LeftToe
				{
					OFFSET 0.026358 -0.055791 0.119288
					CHANNELS 3 Zrotation Yrotation Xrotation
					End Site
					{
						OFFSET 0.000000 0.000000 0.000000
					}
				}
			}
		}
	}
	JOINT RightUpLeg
	{
		OFFSET -0.067670 -0.090522 -0.004320
		CHANNELS 3 Zrotation Yrotation Xrotation
		JOINT RightLeg
		{
			OFFSET -0.038290 -0.382569 -0.008850
			CHANNELS 3 Zrotation Yrotation Xrotation
			JOINT RightFoot
			{
				OFFSET 0.015774 -0.398415 -0.042312
				CHANNELS 3 Zrotation Yrotation Xrotation
				JOINT RightToe
				{
					OFFSET -0.025372 -0.048144 0.123348
					CHANNELS 3 Zrotation Yrotation Xrotation
					End Site
					{
						OFFSET 0.000000 0.000000 0.000000
					}
				}
			}
		}
	}
	JOINT Spine
	{
		OFFSET -0.002533 0.108963 -0.026696
		CHANNELS 3 Zrotation Yrotation Xrotation
		JOINT Spine1
		{
			OFFSET 0.005487 0.135180 0.001092
			CHANNELS 3 Zrotation Yrotation Xrotation
			JOINT Spine2
			{
				OFFSET 0.001457 0.052922 0.025425
				CHANNELS 3 Zrotation Yrotation Xrotation
				JOINT Neck
				{
					OFFSET -0.002778 0.213870 -0.042857
					CHANNELS 3 Zrotation Yrotation Xrotation
					JOINT Head
					{
						OFFSET 0.005152 0.064970 0.051349
						CHANNELS 3 Zrotation Yrotation Xrotation
						End Site
						{
							OFFSET 0.000000 0.000000 0.000000
						}
					}
				}
				JOINT LeftShoulder
				{
					OFFSET 0.078845 0.121749 -0.034090
					CHANNELS 3 Zrotation Yrotation Xrotation
					JOINT LeftArm
					{
						OFFSET 0.090977 0.030469 -0.008868
						CHANNELS 3 Zrotation Yrotation Xrotation
						JOINT LeftForeArm
						{
							OFFSET 0.259612 -0.012772 -0.027456
							CHANNELS 3 Zrotation Yrotation Xrotation
							JOINT LeftHand
							{
								OFFSET 0.249234 0.008986 -0.001171
								CHANNELS 3 Zrotation Yrotation Xrotation
								End Site
								{
									OFFSET 0.000000 0.000000 0.000000
								}
							}
						}
					}
				}
				JOINT RightShoulder
				{
					OFFSET -0.081759 0.118833 -0.038615
					CHANNELS 3 Zrotation Yrotation Xrotation
					JOINT RightArm
					{
						OFFSET -0.096012 0.032551 -0.009143
						CHANNELS 3 Zrotation Yrotation Xrotation
						JOINT RightForeArm
						{
							OFFSET -0.253742 -0.013329 -0.021401
							CHANNELS 3 Zrotation Yrotation Xrotation
							JOINT RightHand
							{
								OFFSET -0.255298 0.007772 -0.005559
								CHANNELS 3 Zrotation Yrotation Xrotation
								End Site
								{
									OFFSET 0.000000 0.000000 0.000000
								}
							}
						}
					}
				}
			}
		}
	}
}
MOTION
Frames: 18
Frame Time: 0.050000
0.000000 0.946361 0.000000 -1.992607 3.492778 6.536176 5.553008 -0.297240 -2.424737 2.625919 0.218378 -8.818499 1.590763 8.272098 14.466893 0.000000 0.000000 0.000000 -3.562573 0.471696 -5.092173 0.288499 -0.230540 -5.257399 -7.551051 -18.629065 17.363143 0.000000 0.000000 0.000000 2.230415 0.230016 -5.224266 0.414916 -0.077224 -2.937596 -0.967895 0.411807 1.683479 4.241546 -1.859530 -10.289555 0.000000 0.000000 0.000000 -16.916320 -0.076662 -2.204512 -56.562489 -4.814221 -4.138647 -9.737324 -17.338765 2.015896 0.000000 0.000000 0.000000 16.297021 -2.295454 -2.241950 60.997844 4.562256 -3.208314 5.528138 16.496441 1.274733 0.000000 0.000000 0.000000 
0.000055 0.945587 -0.000226 -2.200284 2.489408 7.000700 5.035369 -0.281809 -2.362994 3.824695 0.230552 -9.470253 2.115682 9.000533 14.699337 0.000000 0.000000 0.000000 -3.650166 0.521970 -5.691769 0.713642 -0.261695 -5.430581 -7.063669 -17.955124 17.040048 0.000000 0.000000 0.000000 2.815177 0.261120 -5.579021 -0.499130 0.317262 -2.986344 -0.347159 0.875441 1.308174 4.283715 -1.906719 -10.229342 0.000000 0.000000 0.000000 -17.953914 0.615813 -2.656931 -56.066533 -5.169412 -3.879166 -9.767604 -18.075159 2.114565 0.000000 0.000000 0.000000 15.561696 -2.777556 -2.482214 61.744708 3.772959 -3.590462 6.062861 17.348075 1.409996 0.000000 0.000000 0.000000 
0.000183 0.945618 -0.000449 -1.912193 2.719093 6.793087 4.942093 -0.264971 -2.045865 3.428518 0.253808 -9.732114 1.935388 8.774003 14.769740 0.000000 0.000000 0.000000 -3.833904 0.495936 -5.407565 0.491017 -0.249619 -5.457661 -7.189261 -18.130637 17.043712 0.000000 0.000000 0.000000 2.313341 0.220589 -5.009344 0.013299 0.150638 -4.615351 -0.806278 0.467562 1.857297 3.777948 -1.585402 -10.276593 0.000000 0.000000 0.000000 -17.108725 0.122387 -2.239707 -56.644398 -5.166238 -3.997917 -9.487928 -17.735805 2.041018 0.000000 0.000000 0.000000 16.540701 -1.896803 -2.141253 60.389562 3.709923 -3.639195 5.951167 17.287565 1.389003 0.000000 0.000000 0.000000 
0.000399 0.945395 -0.000490 -2.229365 2.557937 7.034634 4.832920 -0.273449 -2.227394 4.209741 0.246943 -9.835262 2.061800 8.947267 14.775986 0.000000 0.000000 0.000000 -3.710858 0.558239 -6.254915 0.832893 -0.237385 -4.502151 -7.165990 -18.110256 16.804682 0.000000 0.000000 0.000000 2.478313 0.234487 -5.225241 -0.494012 0.354921 -4.369116 0.101878 -0.280011 0.884448 3.283984 -1.461805 -9.036341 0.000000 0.000000 0.000000 -17.006335 0.842652 -2.389462 -57.531737 -5.699036 -3.721432 -8.674225 -17.273337 1.890548 0.000000 0.000000 0.000000 15.062972 -1.563416 -2.059379 60.666908 3.487891 -3.664274 6.948484 17.529934 1.506605 0.000000 0.000000 0.000000 
0.000543 0.945552 -0.000518 -2.071271 3.144638 6.861285 4.580964 -0.259692 -1.974417 4.398465 0.265301 -10.174254 1.699453 8.499805 14.867575 0.000000 0.000000 0.000000 -3.758434 0.535389 -6.016488 0.660898 -0.223157 -4.406563 -7.467301 -18.534739 16.936513 0.000000 0.000000 0.000000 2.169032 0.205504 -4.812853 0.051569 0.137904 -4.570615 -0.256378 -0.684030 0.613122 2.572305 -1.006187 -8.786532 0.000000 0.000000 0.000000 -17.222114 0.475416 -2.242310 -57.514719 -6.637295 -3.235827 -8.930270 -16.334295 1.818637 0.000000 0.000000 0.000000 14.872004 -1.525736 -2.023768 60.271951 3.628630 -3.539660 7.610460 17.404788 1.581058 0.000000 0.000000 0.000000 
0.000666 0.945648 -0.000464 -2.122012 3.089124 6.971085 4.424982 -0.261419 -2.060351 4.755614 0.262929 -10.209860 1.723544 8.549675 14.941086 0.000000 0.000000 0.000000 -3.629643 0.558568 -6.306819 0.505021 -0.201277 -4.117311 -7.455641 -18.522300 16.919554 0.000000 0.000000 0.000000 2.140670 0.210219 -4.908984 0.086234 0.127116 -4.700134 -0.112963 -1.050337 0.586260 2.207221 -0.817609 -8.477369 0.000000 0.000000 0.000000 -17.421815 0.668190 -2.274066 -57.732909 -7.181556 -2.981486 -8.553419 -15.973200 1.737086 0.000000 0.000000 0.000000 14.457164 -1.124635 -1.861617 60.301960 3.898524 -3.408935 7.675223 17.343409 1.570334 0.000000 0.000000 0.000000 
0.000658 0.945752 -0.000422 -2.105482 3.092263 6.972146 4.218718 -0.255097 -2.017596 5.089045 0.263457 -10.283592 1.700946 8.539901 15.026988 0.000000 0.000000 0.000000 -3.529643 0.566940 -6.399764 0.295449 -0.179178 -3.943944 -7.465945 -18.538994 16.912266 0.000000 0.000000 0.000000 1.976503 0.205737 -4.855744 0.204752 0.077126 -4.691633 -0.262918 -1.315585 0.509181 1.968504 -0.632254 -8.841165 0.000000 0.000000 0.000000 -17.425674 0.563583 -2.174862 -57.760214 -7.373786 -2.881363 -8.904691 -15.599957 1.747420 0.000000 0.000000 0.000000 14.453646 -0.976352 -1.831293 59.987824 3.963246 -3.354320 8.058059 17.345749 1.614296 0.000000 0.000000 0.000000 
0.000608 0.945982 -0.000407 -2.105703 3.053320 7.147353 3.975956 -0.258945 -2.152819 5.522376 0.264232 -10.367982 1.694966 8.572070 15.198900 0.000000 0.000000 0.000000 -3.406985 0.586765 -6.622804 0.072996 -0.160678 -3.898594 -7.449560 -18.517409 16.990507 0.000000 0.000000 0.000000 2.013607 0.213545 -5.010908 0.139861 0.096088 -4.475565 -0.458667 -1.461863 0.192438 1.621114 -0.452507 -8.310480 0.000000 0.000000 0.000000 -17.691298 0.456075 -2.133866 -57.291963 -7.752588 -2.639054 -9.094986 -15.215400 1.728638 0.000000 0.000000 0.000000 14.567099 -0.787415 -1.782331 59.943341 4.046938 -3.276515 7.953505 17.190085 1.577797 0.000000 0.000000 0.000000 
0.000559 0.946111 -0.000365 -2.137376 2.890201 7.138082 3.874722 -0.258194 -2.192022 5.748477 0.249100 -10.213664 1.782621 8.688452 15.219294 0.000000 0.000000 0.000000 -3.301719 0.597275 -6.719465 -0.063932 -0.144314 -3.751345 -7.367838 -18.402691 16.951504 0.000000 0.000000 0.000000 1.970300 0.210310 -4.942680 0.149077 0.089399 -4.448827 -0.534140 -1.470478 0.047235 1.458044 -0.375865 -7.974314 0.000000 0.000000 0.000000 -17.601780 0.230082 -1.994043 -57.092666 -7.778127 -2.602511 -9.424354 -14.940365 1.739346 0.000000 0.000000 0.000000 14.747682 -0.704084 -1.779472 59.649618 3.999792 -3.268758 8.060289 17.061659 1.574911 0.000000 0.000000 0.000000 
0.000546 0.946225 -0.000280 -2.129818 2.657372 7.154133 3.711325 -0.251804 -2.153373 5.992558 0.245380 -10.211543 1.888221 8.840137 15.313031 0.000000 0.000000 0.000000 -3.254979 0.602482 -6.754172 -0.184992 -0.136218 -3.775025 -7.244206 -18.229164 16.927954 0.000000 0.000000 0.000000 2.059093 0.210609 -4.913160 -0.066834 0.176325 -4.398965 -0.558125 -1.418846 0.056392 1.002451 -0.076371 -7.910820 0.000000 0.000000 0.000000 -17.791981 0.158951 -1.962711 -56.597267 -7.920052 -2.513085 -9.726800 -14.739100 1.755229 0.000000 0.000000 0.000000 14.999783 -0.471111 -1.706122 59.329500 4.381472 -3.060903 8.170939 16.826672 1.562568 0.000000 0.000000 0.000000 
0.000563 0.946055 -0.000165 -2.117881 2.478541 7.065175 3.733687 -0.239424 -1.960865 5.901833 0.253464 -10.295503 1.979705 8.948954 15.298441 0.000000 0.000000 0.000000 -3.238942 0.598964 -6.691654 -0.255018 -0.129760 -3.745665 -7.157516 -18.107867 16.809927 0.000000 0.000000 0.000000 2.075129 0.215303 -4.967431 -0.093920 0.175638 -4.078303 -0.595427 -1.415687 -0.125923 0.788864 0.037039 -7.569404 0.000000 0.000000 0.000000 -17.937386 0.196338 -1.984722 -56.319776 -7.759560 -2.560848 -10.011809 -14.823730 1.802827 0.000000 0.000000 0.000000 15.064276 -0.217165 -1.609333 59.186625 4.774542 -2.839226 8.232895 16.578580 1.540370 0.000000 0.000000 0.000000 
0.000564 0.945868 0.000002 -2.108226 2.192559 6.876560 3.821621 -0.222267 -1.686575 5.684523 0.255461 -10.282594 2.135453 9.126516 15.229519 0.000000 0.000000 0.000000 -3.299202 0.584252 -6.497810 -0.189419 -0.136262 -3.781778 -7.008641 -17.896708 16.651676 0.000000 0.000000 0.000000 2.065737 0.215933 -4.928072 -0.165089 0.192066 -3.723685 -0.435508 -1.265406 -0.299101 0.738486 0.078516 -7.671106 0.000000 0.000000 0.000000 -18.026555 0.292874 -2.041514 -56.097503 -7.478221 -2.669196 -10.534061 -15.141535 1.909978 0.000000 0.000000 0.000000 15.247245 -0.125680 -1.595493 58.974542 5.226705 -2.589869 7.989194 16.349105 1.484622 0.000000 0.000000 0.000000 
0.000579 0.945686 0.000150 -2.148979 1.943891 6.727212 3.851970 -0.204003 -1.402168 5.672654 0.263493 -10.383068 2.263915 9.283181 15.216631 0.000000 0.000000 0.000000 -3.222435 0.579799 -6.405797 -0.268871 -0.127248 -3.707302 -6.883399 -17.717593 16.503377 0.000000 0.000000 0.000000 2.028826 0.215435 -4.886481 -0.112852 0.160230 -3.490763 -0.290277 -1.086133 -0.378364 0.753804 0.032848 -7.233411 0.000000 0.000000 0.000000 -18.243827 0.352040 -2.101786 -55.720105 -7.119088 -2.813723 -10.902280 -15.529523 2.009372 0.000000 0.000000 0.000000 15.485010 0.055544 -1.530869 58.622519 5.532233 -2.416970 7.740039 16.376728 1.456445 0.000000 0.000000 0.000000 
0.000623 0.945457 0.000236 -2.195201 1.719528 6.580390 3.900510 -0.197714 -1.319564 5.642742 0.244710 -10.147262 2.413855 9.446888 15.068330 0.000000 0.000000 0.000000 -3.294571 0.572827 -6.322282 -0.073745 -0.138381 -3.624075 -6.774113 -17.557584 16.335758 0.000000 0.000000 0.000000 2.027150 0.217527 -4.891851 -0.167962 0.167166 -2.977327 -0.033024 -0.923509 -0.725389 0.729242 0.018387 -6.852373 0.000000 0.000000 0.000000 -18.518916 0.545757 -2.237645 -55.220748 -6.664215 -2.968890 -11.683965 -16.070680 2.190127 0.000000 0.000000 0.000000 15.699153 0.293862 -1.450501 58.233457 5.927983 -2.171790 7.534455 16.446616 1.433941 0.000000 0.000000 0.000000 
0.000720 0.945290 0.000192 -2.211866 1.479512 6.533209 3.945876 -0.194773 -1.286598 5.550488 0.236354 -10.024048 2.558383 9.616828 14.993283 0.000000 0.000000 0.000000 -3.389056 0.564439 -6.213071 0.092682 -0.157765 -3.800854 -6.644180 -17.368778 16.266854 0.000000 0.000000 0.000000 2.047844 0.219487 -4.896124 -0.125874 0.144604 -2.898701 0.026663 -0.605921 -0.731564 0.931987 -0.116915 -6.814998 0.000000 0.000000 0.000000 -18.465581 0.606242 -2.303478 -55.153243 -6.243903 -3.154587 -11.904531 -16.383448 2.260409 0.000000 0.000000 0.000000 15.882513 0.416428 -1.372140 58.005696 6.471267 -1.897795 6.984452 16.626831 1.387284 0.000000 0.000000 0.000000 
0.000862 0.945083 -0.000026 -2.289087 1.214059 6.497540 4.081802 -0.195912 -1.295241 5.408556 0.225850 -9.858898 2.730097 9.816025 14.879765 0.000000 0.000000 0.000000 -3.418243 0.562011 -6.165102 0.252603 -0.173900 -3.922418 -6.501795 -17.163521 16.197532 0.000000 0.000000 0.000000 2.027034 0.222055 -4.912761 -0.085765 0.124379 -2.881709 0.279352 -0.202648 -0.577587 1.266763 -0.318352 -7.053110 0.000000 0.000000 0.000000 -18.363105 0.656159 -2.359701 -55.264583 -5.788869 -3.381768 -12.205092 -16.714798 2.345305 0.000000 0.000000 0.000000 15.766824 0.713447 -1.164041 57.801422 7.023558 -1.641050 6.563841 16.776877 1.355460 0.000000 0.000000 0.000000 
0.000994 0.944895 -0.000300 -2.342153 1.066474 6.471422 4.115282 -0.190153 -1.201327 5.417586 0.232734 -9.948203 2.812181 9.918564 14.868059 0.000000 0.000000 0.000000 -3.425930 0.558702 -6.109545 0.339767 -0.184626 -4.046825 -6.420093 -17.044297 16.162644 0.000000 0.000000 0.000000 2.099039 0.229022 -5.001680 -0.058531 0.104615 -2.652174 0.387511 0.090019 -0.709192 1.642726 -0.562824 -7.100580 0.000000 0.000000 0.000000 -18.215793 0.558234 -2.335899 -55.407726 -5.457336 -3.528942 -12.409701 -16.856610 2.388804 0.000000 0.000000 0.000000 15.834066 0.910614 -1.036322 57.704196 7.494700 -1.397411 5.954904 16.798165 1.283781 0.000000 0.000000 0.000000 
0.001119 0.944685 -0.000534 -2.525155 0.676150 6.425976 4.236545 -0.185497 -1.131742 5.494175 0.223417 -9.852485 3.047976 10.212703 14.804437 0.000000 0.000000 0.000000 -3.476233 0.555733 -6.046386 0.737112 -0.217524 -4.216968 -6.204135 -16.729168 16.090762 0.000000 0.000000 0.000000 2.081066 0.229753 -4.976658 0.150422 0.008134 -2.601728 0.519497 0.607969 -0.730324 2.113785 -0.867532 -7.157997 0.000000 0.000000 0.000000 -17.989970 0.550340 -2.367201 -55.634108 -5.097368 -3.704050 -12.673278 -16.919623 2.427226 0.000000 0.000000 0.000000 15.705836 1.051877 -0.896521 57.711546 7.969934 -1.162562 5.520380 16.658577 1.223770 0.000000 0.000000 0.000000 
